<?xml version="1.0" encoding="UTF-8"?>
<svg version="1.1" xmlns="http://www.w3.org/2000/svg" width="925" height="216">
<path d="M0 0 C1.09699219 -0.00193359 2.19398437 -0.00386719 3.32421875 -0.00585938 C5.03544922 0.02991211 5.03544922 0.02991211 6.78125 0.06640625 C7.92207031 0.05544922 9.06289063 0.04449219 10.23828125 0.03320312 C18.53872395 0.10635626 18.53872395 0.10635626 21.61425781 2.27075195 C23.78489555 5.34137145 23.74240708 7.18758097 23.671875 10.92578125 C23.65898438 12.13105469 23.64609375 13.33632812 23.6328125 14.578125 C23.59929687 15.83238281 23.56578125 17.08664063 23.53125 18.37890625 C23.51320313 19.64863281 23.49515625 20.91835937 23.4765625 22.2265625 C23.42942153 25.36143702 23.36362664 28.49479185 23.28125 31.62890625 C24.47669434 31.59748535 24.47669434 31.59748535 25.69628906 31.56542969 C29.30781434 31.48227303 32.91913824 31.43024591 36.53125 31.37890625 C38.41263672 31.32863281 38.41263672 31.32863281 40.33203125 31.27734375 C41.53730469 31.26445313 42.74257812 31.2515625 43.984375 31.23828125 C45.09458008 31.21733398 46.20478516 31.19638672 47.34863281 31.17480469 C50.28125 31.62890625 50.28125 31.62890625 52.6394043 33.31176758 C55.67603119 37.5973625 54.89487404 42.48708275 54.84375 47.56640625 C54.87952148 49.19352539 54.87952148 49.19352539 54.91601562 50.85351562 C54.90749528 55.47438337 54.74986508 58.73896752 52.578125 62.86328125 C47.2357538 65.72436156 41.91588593 65.14934807 35.96875 64.94140625 C34.75123047 64.91884766 33.53371094 64.89628906 32.27929688 64.87304688 C29.27869518 64.81421155 26.28060203 64.73204765 23.28125 64.62890625 C23.30743408 65.39033936 23.33361816 66.15177246 23.3605957 66.9362793 C23.46472015 70.3961106 23.52962729 73.8556121 23.59375 77.31640625 C23.63564453 78.51458984 23.67753906 79.71277344 23.72070312 80.94726562 C23.84128179 89.60481342 23.84128179 89.60481342 21.48046875 93.921875 C16.62835696 96.51085284 12.19806854 96.3553448 6.78125 96.25390625 C5.23244141 96.28291016 5.23244141 96.28291016 3.65234375 96.3125 C-0.83564444 96.28354524 -3.92389281 96.05302419 -7.91796875 93.921875 C-10.8328353 88.59165265 -10.2395783 83.27459556 -10.03125 77.31640625 C-10.00869141 76.09888672 -9.98613281 74.88136719 -9.96289062 73.62695312 C-9.9040553 70.62635143 -9.8218914 67.62825828 -9.71875 64.62890625 C-10.48018311 64.65509033 -11.24161621 64.68127441 -12.02612305 64.70825195 C-15.48595435 64.8123764 -18.94545585 64.87728354 -22.40625 64.94140625 C-23.60443359 64.98330078 -24.80261719 65.02519531 -26.03710938 65.06835938 C-34.69347256 65.18892154 -34.69347256 65.18892154 -39.015625 62.828125 C-41.59952087 57.97443069 -41.40628832 53.54272763 -41.28125 48.12890625 C-41.29220703 47.09636719 -41.30316406 46.06382813 -41.31445312 45 C-41.24209036 37.52251479 -41.24209036 37.52251479 -39.0769043 33.82543945 C-36.03136027 30.98862823 -34.53346049 31.04365364 -30.421875 31.140625 C-29.21660156 31.15673828 -28.01132812 31.17285156 -26.76953125 31.18945312 C-25.51527344 31.23134766 -24.26101562 31.27324219 -22.96875 31.31640625 C-21.06416016 31.35024414 -21.06416016 31.35024414 -19.12109375 31.38476562 C-15.98579227 31.44369986 -12.85286405 31.52593546 -9.71875 31.62890625 C-9.73969727 30.86747314 -9.76064453 30.10604004 -9.78222656 29.3215332 C-9.86552795 25.86162593 -9.91745584 22.40192987 -9.96875 18.94140625 C-10.00226562 17.74322266 -10.03578125 16.54503906 -10.0703125 15.31054688 C-10.08320313 14.15361328 -10.09609375 12.99667969 -10.109375 11.8046875 C-10.13032227 10.74161377 -10.15126953 9.67854004 -10.17285156 8.58325195 C-9.2139791 2.34491022 -6.11992064 -0.0044333 0 0 Z " fill="#24337F" transform="translate(40.71875,60.37109375)"/>
<path d="M0 0 C0.66 0.66 1.32 1.32 2 2 C2.66 0.35 3.32 -1.3 4 -3 C8.95 -3 13.9 -3 19 -3 C19.11341878 5.30225476 19.20495373 13.60389703 19.25906086 21.90672112 C19.28504291 25.76297904 19.32022818 29.61867486 19.37719727 33.47460938 C19.43192981 37.20292732 19.46150598 40.93070812 19.47438622 44.65939713 C19.48355294 46.07467214 19.501452 47.48992111 19.52865028 48.90496445 C19.68923346 57.61402109 19.26463344 64.78117747 14 72 C6.75562711 79.03526442 -0.90882028 80.41762004 -10.86108398 80.36352539 C-18.97949789 80.15310688 -25.91999149 78.29981555 -32 72.6875 C-35.60850955 68.66362244 -38 64.53059882 -38 59 C-32.39 59 -26.78 59 -21 59 C-20.67 59.99 -20.34 60.98 -20 62 C-13.97831128 64.28824171 -8.66634886 65.08629028 -2.625 62.625 C0.08676342 61.26406259 0.08676342 61.26406259 1 59 C1.06996014 57.29297265 1.08440154 55.58331997 1.0625 53.875 C1.05347656 52.96492188 1.04445313 52.05484375 1.03515625 51.1171875 C1.02355469 50.41851562 1.01195312 49.71984375 1 49 C0.071875 49.639375 -0.85625 50.27875 -1.8125 50.9375 C-8.05763854 54.97847199 -15.1108269 54.8971715 -22.3203125 53.57421875 C-28.60626375 51.56517943 -32.79089947 47.41465687 -36.32421875 41.953125 C-40.58433497 33.28341479 -40.29710222 22.16315432 -38.33984375 12.86328125 C-35.8046317 5.69664286 -31.2542783 1.01765255 -24.875 -2.9375 C-16.37291144 -6.00823176 -7.44568311 -4.77647596 0 0 Z M-19 14 C-22.8955117 19.42724202 -22.79659297 24.53096475 -22 31 C-20.78458773 34.25979805 -18.97445369 36.26075927 -16.1875 38.375 C-11.74091802 39.645452 -8.09482492 39.37897786 -3.75 37.875 C-0.2686657 35.50136298 0.68738293 34.01077438 2 30 C2.69562622 24.05819273 2.55707433 19.02896716 -1 14 C-4.50674077 10.9942222 -7.60075382 10.52107785 -12.07421875 10.71484375 C-14.99255546 11.14697069 -16.73883809 12.12646585 -19 14 Z " fill="#2B3983" transform="translate(792,92)"/>
<path d="M0 0 C5.94 0 11.88 0 18 0 C18.33 10.56 18.66 21.12 19 32 C26.77829203 22.60443933 34.49672012 13.18776077 41.98828125 3.5625 C44 1 44 1 45 0 C46.56172745 -0.08685603 48.12729344 -0.10702219 49.69140625 -0.09765625 C50.63564453 -0.09443359 51.57988281 -0.09121094 52.55273438 -0.08789062 C53.54595703 -0.07951172 54.53917969 -0.07113281 55.5625 -0.0625 C56.55958984 -0.05798828 57.55667969 -0.05347656 58.58398438 -0.04882812 C61.05604849 -0.03700007 63.52799518 -0.02051849 66 0 C62.36467249 4.87526598 58.69881721 9.72120102 54.9375 14.5 C54.25337036 15.37035889 54.25337036 15.37035889 53.55541992 16.25830078 C47.78651159 23.57236592 41.89306787 30.78591055 36 38 C37.36266644 42.03805866 39.1409151 44.54368118 42.0625 47.625 C46.08632445 51.9697036 49.86665999 56.44109054 53.58203125 61.05078125 C55.3645583 63.22494591 57.16687797 65.3605048 59.01171875 67.48046875 C59.51848145 68.06594482 60.02524414 68.6514209 60.54736328 69.25463867 C61.54106678 70.39933515 62.54056991 71.53902815 63.54638672 72.6730957 C67 76.66645198 67 76.66645198 67 80 C50.50781026 82.0478913 50.50781026 82.0478913 45.11816406 78.90136719 C41.84925298 75.98421277 39.48538213 72.43283327 37.1484375 68.75292969 C35.40955158 66.09876283 33.36281282 63.72992964 31.3125 61.3125 C27.16901607 56.23901567 23.09265328 51.11581659 19 46 C18.67 57.22 18.34 68.44 18 80 C12.06 80 6.12 80 0 80 C0 53.6 0 27.2 0 0 Z " fill="#2C3A84" transform="translate(122,70)"/>
<path d="M0 0 C0.83184814 0.00829834 1.66369629 0.01659668 2.52075195 0.02514648 C12.00719078 0.28600267 18.79804349 2.87499759 25.73828125 9.44921875 C30.95058079 15.13029042 33.74316645 19.67737533 34.5625 27.4375 C18.23377784 28.66985639 18.23377784 28.66985639 14.2421875 25.7265625 C12.8125 23.5625 12.8125 23.5625 11.62890625 21.3515625 C10.626158 19.14526689 10.626158 19.14526689 7.75 17.9375 C1.03638059 16.88438323 -4.5546946 16.62774848 -10.64453125 20.03125 C-14.84953688 23.32929363 -17.51739643 28.20499183 -18.4375 33.4375 C-19.29978972 45.87084674 -19.29978972 45.87084674 -15.4375 57.4375 C-11.76039641 61.53186358 -8.35307829 64.1808618 -2.73046875 64.67578125 C5.65274981 64.89210457 5.65274981 64.89210457 12.5625 60.4375 C12.90796875 59.57125 13.2534375 58.705 13.609375 57.8125 C15.5625 55.4375 15.5625 55.4375 17.58178711 55.03393555 C20.15423288 54.94425016 22.67896728 55.00274899 25.25 55.125 C26.14267578 55.14755859 27.03535156 55.17011719 27.95507812 55.19335938 C30.15924272 55.25229426 32.36002672 55.33449182 34.5625 55.4375 C33.51664989 63.80430087 29.20480068 70.97476191 22.5546875 76.19140625 C13.19618613 82.0450571 2.49709768 83.80479159 -8.31640625 81.94140625 C-18.8083331 79.3585536 -26.14567468 74.28232761 -32.4375 65.4375 C-38.77968993 52.9724466 -39.60062279 37.68771637 -35.875 24.25 C-32.66576808 15.46683897 -26.7430373 7.93065952 -18.4375 3.4375 C-12.27733557 0.8414919 -6.65777991 -0.0860949 0 0 Z " fill="#2D3B84" transform="translate(465.4375,68.5625)"/>
<path d="M0 0 C5.61 0 11.22 0 17 0 C17.33 13.86 17.66 27.72 18 42 C25.53776154 33.64243915 25.53776154 33.64243915 31.3125 24.875 C33.53205891 21.55039822 35.41299574 19.3785663 39.39697266 18.42822266 C45.29322229 17.8738744 51.13394315 18.27848355 57 19 C55.17361342 22.88746018 52.67769969 25.90450362 49.875 29.125 C48.88456146 30.28182043 47.89498634 31.43938061 46.90625 32.59765625 C46.41640625 33.17016113 45.9265625 33.74266602 45.421875 34.33251953 C43.38281209 36.72379695 41.36796984 39.1326654 39.375 41.5625 C38.74335937 42.32691406 38.11171875 43.09132812 37.4609375 43.87890625 C35.50245654 46.69957088 35.50245654 46.69957088 35 50 C36.56141351 52.32230492 36.56141351 52.32230492 38.875 54.5625 C43.11516013 59.033462 47.0443028 63.65224171 50.9140625 68.4453125 C52.75207126 70.69635693 54.63831073 72.88536566 56.5625 75.0625 C59 78 59 78 59 80 C43.23509499 81.76436243 43.23509499 81.76436243 38.16552734 78.99951172 C34.95179632 76.3530872 32.54953965 73.09662254 30.19091797 69.68994141 C28.26204138 66.95281887 26.08850512 64.44057483 23.9375 61.875 C23.22464844 60.98554688 22.51179687 60.09609375 21.77734375 59.1796875 C20.03354816 56.96611041 20.03354816 56.96611041 18 55 C17.67 63.25 17.34 71.5 17 80 C11.39 80 5.78 80 0 80 C0 53.6 0 27.2 0 0 Z " fill="#2D3B84" transform="translate(539,70)"/>
<path d="M0 0 C5.61 0 11.22 0 17 0 C17.33 13.86 17.66 27.72 18 42 C28.28222021 30.58380766 28.28222021 30.58380766 32.4375 23.1875 C34.49315296 20.48590938 35.91763959 19.19656237 39.29345703 18.58349609 C45.21506089 18.14344329 51.09516651 18.45169403 57 19 C54.06305722 23.61920117 50.79632076 27.7039088 47.1875 31.8125 C42.61266939 37.07900475 38.19213627 42.42032567 34 48 C36.04046726 51.63177507 38.28618385 54.58268448 41.125 57.625 C45.96995354 62.9125594 50.50950445 68.41049216 55 74 C55.74636719 74.91136719 56.49273437 75.82273437 57.26171875 76.76171875 C59 79 59 79 59 80 C42.41605875 82.06479901 42.41605875 82.06479901 37.02001953 78.80322266 C33.50213553 75.6362196 30.87230609 71.83256444 28.28173828 67.89501953 C26.29952828 64.96436924 24.03096613 62.32902012 21.75 59.625 C20.5125 58.09875 19.275 56.5725 18 55 C17.67 63.25 17.34 71.5 17 80 C11.39 80 5.78 80 0 80 C-1.50543691 76.98912617 -1.08083502 73.90992888 -1.02172852 70.61279297 C-1.01212097 69.85172241 -1.00251343 69.09065186 -0.99261475 68.30651855 C-0.95957148 65.78498232 -0.91925954 63.26361648 -0.87890625 60.7421875 C-0.85461033 58.99627284 -0.83076651 57.25035183 -0.80735779 55.50442505 C-0.74446425 50.90448795 -0.67541256 46.3046629 -0.60510254 41.70483398 C-0.53446664 37.01291007 -0.46962131 32.32090659 -0.40429688 27.62890625 C-0.2752166 18.41918105 -0.13909941 9.20957933 0 0 Z " fill="#2E3C85" transform="translate(349,70)"/>
<path d="M0 0 C6.25780443 3.6764601 9.78992233 9.6328252 11.625 16.5 C11.89006623 19.90624752 11.85815467 23.29617089 11.8203125 26.7109375 C11.8174826 27.67907379 11.81465271 28.64721008 11.81173706 29.64468384 C11.80058696 32.72158428 11.7754918 35.79818828 11.75 38.875 C11.73996352 40.9674437 11.73083884 43.05989198 11.72265625 45.15234375 C11.70066453 50.26834251 11.66617025 55.38412108 11.625 60.5 C6.015 60.5 0.405 60.5 -5.375 60.5 C-5.38958252 59.31446533 -5.40416504 58.12893066 -5.41918945 56.9074707 C-5.47725938 52.49961523 -5.55449184 48.09226596 -5.63745117 43.68481445 C-5.67065962 41.77897369 -5.69870425 39.87303554 -5.72143555 37.96704102 C-5.75505668 35.22369985 -5.80737595 32.48124778 -5.86328125 29.73828125 C-5.86967117 28.88913651 -5.8760611 28.03999176 -5.88264465 27.16511536 C-5.99840817 22.48377546 -6.32893985 19.29578775 -9.375 15.5 C-12.43929776 13.96785112 -14.9915642 14.27061452 -18.375 14.5 C-22.10303465 16.24728778 -22.10303465 16.24728778 -24.375 19.5 C-24.53245826 22.5604194 -24.63366877 25.601419 -24.69140625 28.6640625 C-24.71218735 29.57127045 -24.73296844 30.47847839 -24.75437927 31.41317749 C-24.81987135 34.3170398 -24.87875814 37.22099405 -24.9375 40.125 C-24.98068555 42.09115542 -25.02429985 44.05730147 -25.06835938 46.0234375 C-25.17555239 50.84886362 -25.27682081 55.6743824 -25.375 60.5 C-28.18756281 60.52684312 -30.99987241 60.54676188 -33.8125 60.5625 C-34.61494141 60.57087891 -35.41738281 60.57925781 -36.24414062 60.58789062 C-38.28795221 60.5965143 -40.33183902 60.5522815 -42.375 60.5 C-43.375 59.5 -43.375 59.5 -43.49525452 57.10191345 C-43.49303391 56.03824051 -43.49081329 54.97456757 -43.48852539 53.87866211 C-43.48844986 52.67749252 -43.48837433 51.47632294 -43.48829651 50.23875427 C-43.48313522 48.9314888 -43.47797394 47.62422333 -43.47265625 46.27734375 C-43.47079198 44.93355868 -43.46936812 43.58977293 -43.46836853 42.24598694 C-43.46454402 38.70317723 -43.45471432 35.1604083 -43.44366455 31.61761475 C-43.43344899 28.00484773 -43.4288706 24.39207416 -43.42382812 20.77929688 C-43.41309198 13.68617961 -43.39549572 6.59309675 -43.375 -0.5 C-38.425 -0.5 -33.475 -0.5 -28.375 -0.5 C-28.045 1.48 -27.715 3.46 -27.375 5.5 C-26.83230469 5.07847656 -26.28960937 4.65695313 -25.73046875 4.22265625 C-25.01503906 3.67480469 -24.29960937 3.12695312 -23.5625 2.5625 C-22.85480469 2.01722656 -22.14710938 1.47195312 -21.41796875 0.91015625 C-15.59576863 -3.10860904 -6.33733208 -2.78254233 0 0 Z " fill="#334188" transform="translate(295.375,89.5)"/>
<path d="M0 0 C7.07504458 4.19911997 10.70388255 9.57864878 12.9359436 17.36297607 C13.88800187 21.61244981 13.91930338 25.69771969 13.83984375 30.03515625 C13.83559891 30.93104462 13.83135406 31.82693298 13.82698059 32.74996948 C13.81037654 35.57191854 13.77276093 38.39311574 13.734375 41.21484375 C13.71930446 43.14452083 13.70562024 45.07420927 13.69335938 47.00390625 C13.6605333 51.69950222 13.60888116 56.39454616 13.546875 61.08984375 C7.936875 61.08984375 2.326875 61.08984375 -3.453125 61.08984375 C-3.50210938 58.50011719 -3.55109375 55.91039062 -3.6015625 53.2421875 C-3.6556683 50.71682262 -3.71293795 48.19154777 -3.77050781 45.66625977 C-3.80864413 43.91958402 -3.84352302 42.17283384 -3.875 40.42602539 C-3.92098587 37.90614329 -3.97892247 35.38676685 -4.0390625 32.8671875 C-4.05061371 32.09398666 -4.06216492 31.32078583 -4.07406616 30.52415466 C-4.20311998 25.71629489 -4.83960438 21.63521381 -6.453125 17.08984375 C-10.18332396 13.91226686 -15.15909797 14.96584229 -19.765625 15.21484375 C-21.72774044 16.00712543 -21.72774044 16.00712543 -22.53271484 18.57470703 C-23.65359578 22.85546133 -23.80528461 26.80134775 -23.8671875 31.20703125 C-23.88655365 32.06418732 -23.9059198 32.92134338 -23.9258728 33.80447388 C-23.98533756 36.52449803 -24.03192069 39.24456527 -24.078125 41.96484375 C-24.1163353 43.81642403 -24.15538878 45.66798712 -24.1953125 47.51953125 C-24.29258873 52.04287592 -24.37241886 56.56605205 -24.453125 61.08984375 C-30.063125 61.08984375 -35.673125 61.08984375 -41.453125 61.08984375 C-41.453125 40.95984375 -41.453125 20.82984375 -41.453125 0.08984375 C-36.503125 0.08984375 -31.553125 0.08984375 -26.453125 0.08984375 C-25.793125 1.73984375 -25.133125 3.38984375 -24.453125 5.08984375 C-23.710625 4.47109375 -22.968125 3.85234375 -22.203125 3.21484375 C-15.73618282 -1.78233884 -7.8262962 -2.90370544 0 0 Z " fill="#2F3D85" transform="translate(730.453125,88.91015625)"/>
<path d="M0 0 C5.61 0 11.22 0 17 0 C17.06798933 8.71065331 17.12293862 17.42112811 17.15543652 26.13198757 C17.17104005 30.17752949 17.19218013 34.22287921 17.22631836 38.26831055 C17.25910281 42.17813549 17.27689289 46.08777647 17.28463173 49.99772835 C17.29014121 51.48355057 17.30089927 52.96936361 17.31719017 54.45510674 C17.51641333 73.39104948 17.51641333 73.39104948 11.625 79.4375 C5.65986891 82.98817327 0.99923535 83.25706944 -5.8125 83.125 C-7.13797852 83.11146484 -7.13797852 83.11146484 -8.49023438 83.09765625 C-10.66027359 83.07419637 -12.83017247 83.03832865 -15 83 C-15 78.05 -15 73.1 -15 68 C-8.565 67.505 -8.565 67.505 -2 67 C-0.907072 63.721216 -0.84216128 61.23715589 -0.79467773 57.78442383 C-0.77473251 56.5033223 -0.75478729 55.22222076 -0.73423767 53.90229797 C-0.7172546 52.50387696 -0.70037575 51.10545469 -0.68359375 49.70703125 C-0.66301834 48.2764171 -0.64202171 46.84580895 -0.62062073 45.41520691 C-0.56546067 41.65219994 -0.51602471 37.88913865 -0.46777344 34.1260376 C-0.41751407 30.28514784 -0.36185117 26.44433684 -0.30664062 22.60351562 C-0.19913325 15.06907528 -0.09817131 7.53456884 0 0 Z " fill="#2F3D85" transform="translate(631,89)"/>
<path d="M0 0 C5.94 0 11.88 0 18 0 C18 26.4 18 52.8 18 80 C12.39 80 6.78 80 1 80 C-0.7082941 78.2917059 -0.11971926 76.13995623 -0.12442017 73.86213684 C-0.12082489 73.12702377 -0.11722961 72.39191071 -0.11352539 71.63452148 C-0.11367142 70.86384338 -0.11381744 70.09316528 -0.1139679 69.2991333 C-0.1132686 66.73975861 -0.10547545 64.1804558 -0.09765625 61.62109375 C-0.09579213 59.85132385 -0.0943682 58.08155344 -0.09336853 56.31178284 C-0.08954288 51.64448634 -0.0797122 46.97722077 -0.06866455 42.30993652 C-0.05845144 37.55102965 -0.05387113 32.79211779 -0.04882812 28.03320312 C-0.03808997 18.68878629 -0.0204928 9.34440055 0 0 Z " fill="#3B488C" transform="translate(193,70)"/>
<path d="M0 0 C5.61 0 11.22 0 17 0 C17 20.13 17 40.26 17 61 C11.39 61 5.78 61 0 61 C0 40.87 0 20.74 0 0 Z " fill="#313E86" transform="translate(660,89)"/>
<path d="M0 0 C5.61 0 11.22 0 17 0 C17 20.13 17 40.26 17 61 C11.39 61 5.78 61 0 61 C0 40.87 0 20.74 0 0 Z " fill="#313E86" transform="translate(319,89)"/>
<path d="M0 0 C5.61 0 11.22 0 17 0 C17 20.13 17 40.26 17 61 C11.39 61 5.78 61 0 61 C0 40.87 0 20.74 0 0 Z " fill="#313F86" transform="translate(223,89)"/>
<path d="M0 0 C5.61 0 11.22 0 17 0 C17 20.13 17 40.26 17 61 C11.72 61 6.44 61 1 61 C0 60 0 60 -0.12025452 57.60191345 C-0.11803391 56.53824051 -0.11581329 55.47456757 -0.11352539 54.37866211 C-0.11344986 53.17749252 -0.11337433 51.97632294 -0.11329651 50.73875427 C-0.10813522 49.4314888 -0.10297394 48.12422333 -0.09765625 46.77734375 C-0.09579198 45.43355868 -0.09436812 44.08977293 -0.09336853 42.74598694 C-0.08954402 39.20317723 -0.07971432 35.6604083 -0.06866455 32.11761475 C-0.05844899 28.50484773 -0.0538706 24.89207416 -0.04882812 21.27929688 C-0.03809198 14.18617961 -0.02049572 7.09309675 0 0 Z " fill="#313F87" transform="translate(601,89)"/>
<path d="M0 0 C5.61 0 11.22 0 17 0 C17 20.13 17 40.26 17 61 C11.72 61 6.44 61 1 61 C0 60 0 60 -0.12025452 57.60191345 C-0.11803391 56.53824051 -0.11581329 55.47456757 -0.11352539 54.37866211 C-0.11344986 53.17749252 -0.11337433 51.97632294 -0.11329651 50.73875427 C-0.10813522 49.4314888 -0.10297394 48.12422333 -0.09765625 46.77734375 C-0.09579198 45.43355868 -0.09436812 44.08977293 -0.09336853 42.74598694 C-0.08954402 39.20317723 -0.07971432 35.6604083 -0.06866455 32.11761475 C-0.05844899 28.50484773 -0.0538706 24.89207416 -0.04882812 21.27929688 C-0.03809198 14.18617961 -0.02049572 7.09309675 0 0 Z " fill="#313E86" transform="translate(509,89)"/>
<path d="M0 0 C3.34664567 2.42097772 4.69586639 4.08759917 6 8 C6 11.65923696 5.24243223 13.13896577 3 16 C0.68162542 18.31837458 -0.62761069 18.93523664 -3.875 19.5 C-8.18863618 18.80981821 -10.0419479 17.16442783 -13 14 C-14.38666474 10.16627983 -14.21605148 8.56173386 -12.75 4.75 C-9.56902091 -0.24868143 -5.61235291 -1.06120513 0 0 Z " fill="#37448A" transform="translate(643,65)"/>
<path d="M0 0 C3.14249107 2.02952548 4.63745366 3.46955631 5.51171875 7.16015625 C5.75802839 10.43881119 5.73398271 12.91530883 3.85546875 15.69140625 C1.43005003 17.93763837 -0.79056388 18.95636748 -4 19.625 C-8.20335872 18.74930027 -10.11528055 17.15306544 -13 14 C-14.21121208 10.01012491 -14.44996519 8.01242168 -12.75 4.1875 C-9.21496789 -0.23129014 -5.39728515 -0.98705215 0 0 Z " fill="#37448A" transform="translate(614,65)"/>
<path d="M0 0 C2.97717008 1.98478006 4.62826444 3.36831119 5.44140625 6.9375 C5.66684799 10.77728188 5.23190202 12.63668683 3.125 15.9375 C0.59545149 18.39265003 -0.30574285 18.93828825 -3.8125 19.25 C-7.44165156 18.96536066 -9.14296165 18.22214094 -12 16 C-14.11154871 13.40855385 -14.1350172 11.22611429 -13.9375 8 C-13.43312366 4.92788956 -13.00155439 4.00188411 -10.9375 1.5 C-7.1310601 -0.44371399 -4.18706857 -0.95390877 0 0 Z " fill="#364389" transform="translate(236,65)"/>
<path d="M0 0 C3.03978021 0.68164768 4.80055419 2.23591662 6.93359375 4.43359375 C8.34360039 7.25360702 8.17907826 9.3036663 7.93359375 12.43359375 C6.68594069 15.17843048 5.5804394 16.90653433 3.24609375 18.80859375 C-0.35113332 19.78081728 -3.51423669 19.54000722 -7.06640625 18.43359375 C-9.65501722 16.2979897 -10.77710444 14.79744513 -11.4765625 11.5 C-11.76675475 7.56380251 -11.29899498 5.78247684 -9.06640625 2.43359375 C-5.71397384 0.19863881 -3.9372435 -0.24561254 0 0 Z " fill="#354289" transform="translate(670.06640625,64.56640625)"/>
<path d="M0 0 C2.97717008 1.98478006 4.62826444 3.36831119 5.44140625 6.9375 C5.65307376 10.54267571 5.15689994 12.69273762 3.5 15.9375 C0.13558638 18.71314123 -2.67736968 19.30077945 -7 19 C-9.90208571 17.80131242 -11.40814148 16.72637182 -13.375 14.3125 C-14.34722353 10.71527293 -14.10641347 7.55216956 -13 4 C-9.43503491 -0.3211698 -5.32874764 -1.21400904 0 0 Z " fill="#354289" transform="translate(522,65)"/>
<path d="M0 0 C3.03978021 0.68164768 4.80055419 2.23591662 6.93359375 4.43359375 C8.34360039 7.25360702 8.17907826 9.3036663 7.93359375 12.43359375 C6.68594069 15.17843048 5.5804394 16.90653433 3.24609375 18.80859375 C-0.35113332 19.78081728 -3.51423669 19.54000722 -7.06640625 18.43359375 C-9.65501722 16.2979897 -10.77710444 14.79744513 -11.4765625 11.5 C-11.76675475 7.56380251 -11.29899498 5.78247684 -9.06640625 2.43359375 C-5.71397384 0.19863881 -3.9372435 -0.24561254 0 0 Z " fill="#354289" transform="translate(329.06640625,64.56640625)"/>
<path d="M0 0 C0.33 0 0.66 0 1 0 C1 21.12 1 42.24 1 64 C0.67 64 0.34 64 0 64 C0 42.88 0 21.76 0 0 Z " fill="#FAFBFC" transform="translate(812,89)"/>
<path d="M0 0 C0.33 0 0.66 0 1 0 C1 19.14 1 38.28 1 58 C0.67 58 0.34 58 0 58 C0 38.86 0 19.72 0 0 Z " fill="#FCFCFD" transform="translate(337,91)"/>
<path d="M0 0 C0.33 0 0.66 0 1 0 C1 18.81 1 37.62 1 57 C0.67 57 0.34 57 0 57 C0 38.19 0 19.38 0 0 Z " fill="#FCFCFD" transform="translate(678,92)"/>
<path d="M0 0 C0.33 0 0.66 0 1 0 C1 17.82 1 35.64 1 54 C0.67 54 0.34 54 0 54 C0 36.18 0 18.36 0 0 Z " fill="#FCFCFD" transform="translate(241,92)"/>
<path d="M0 0 C0.33 0 0.66 0 1 0 C1 17.16 1 34.32 1 52 C0.67 52 0.34 52 0 52 C0 34.84 0 17.68 0 0 Z " fill="#FEFEFE" transform="translate(212,92)"/>
<path d="M0 0 C1.32 0.66 2.64 1.32 4 2 C4 2.66 4 3.32 4 4 C-2.27 4 -8.54 4 -15 4 C-15.33 3.34 -15.66 2.68 -16 2 C-10.72 2 -5.44 2 0 2 C0 1.34 0 0.68 0 0 Z " fill="#8A92BA" transform="translate(594,146)"/>
<path d="M0 0 C8.25 0 16.5 0 25 0 C25 0.33 25 0.66 25 1 C17.08 1 9.16 1 1 1 C1 6.94 1 12.88 1 19 C0.67 19 0.34 19 0 19 C0 12.73 0 6.46 0 0 Z " fill="#FBFBFC" transform="translate(65,126)"/>
<path d="M0 0 C0.33 0 0.66 0 1 0 C1 13.53 1 27.06 1 41 C0.67 41 0.34 41 0 41 C0 27.47 0 13.94 0 0 Z " fill="#FAFAFB" transform="translate(557,70)"/>
<path d="M0 0 C0.33 0 0.66 0 1 0 C1 12.54 1 25.08 1 38 C0.67 38 0.34 38 0 38 C0 25.46 0 12.92 0 0 Z " fill="#FBFBFC" transform="translate(707,111)"/>
<path d="M0 0 C0.33 0 0.66 0 1 0 C1 11.88 1 23.76 1 36 C0.67 36 0.34 36 0 36 C0 24.12 0 12.24 0 0 Z " fill="#FDFDFD" transform="translate(271,109)"/>
<path d="M0 0 C1.32 0 2.64 0 4 0 C4.33 1.65 4.66 3.3 5 5 C-2.425 4.01 -2.425 4.01 -10 3 C-10 2.67 -10 2.34 -10 2 C-6.7 2 -3.4 2 0 2 C0 1.34 0 0.68 0 0 Z " fill="#FDFDFD" transform="translate(767,146)"/>
<path d="M0 0 C0.33 0 0.66 0 1 0 C1 10.23 1 20.46 1 31 C0.34 30.67 -0.32 30.34 -1 30 C-0.67 20.1 -0.34 10.2 0 0 Z " fill="#FEFEFE" transform="translate(620,119)"/>
<path d="M0 0 C2 2 2 2 2.13525391 4.52197266 C2.08288574 5.5588623 2.03051758 6.59575195 1.9765625 7.6640625 C1.925 8.78554687 1.8734375 9.90703125 1.8203125 11.0625 C1.75585938 12.238125 1.69140625 13.41375 1.625 14.625 C1.56828125 15.80835938 1.5115625 16.99171875 1.453125 18.2109375 C1.31133757 21.14121112 1.15989667 24.07066772 1 27 C0.67 27 0.34 27 0 27 C0 18.09 0 9.18 0 0 Z " fill="#FBFBFC" transform="translate(141,118)"/>
<path d="M0 0 C6.6 0 13.2 0 20 0 C19.01 1.65 18.02 3.3 17 5 C16.67 3.68 16.34 2.36 16 1 C10.72 1 5.44 1 0 1 C0 0.67 0 0.34 0 0 Z " fill="#7E86B3" transform="translate(386,89)"/>
<path d="M0 0 C6.93 0 13.86 0 21 0 C19.68 1.65 18.36 3.3 17 5 C17 3.68 17 2.36 17 1 C11.39 1 5.78 1 0 1 C0 0.67 0 0.34 0 0 Z " fill="#6B75A8" transform="translate(167,70)"/>
<path d="M0 0 C0.33 0 0.66 0 1 0 C1 8.58 1 17.16 1 26 C0.67 26 0.34 26 0 26 C0 17.42 0 8.84 0 0 Z " fill="#FCFCFD" transform="translate(120,104)"/>
<path d="M0 0 C0.33 0 0.66 0 1 0 C2.33257403 14.59681093 2.33257403 14.59681093 1 22 C0.67 22 0.34 22 0 22 C0 14.74 0 7.48 0 0 Z " fill="#FCFCFD" transform="translate(141,70)"/>
<path d="M0 0 C0.33 0 0.66 0 1 0 C1.33 6.93 1.66 13.86 2 21 C1.34 21.33 0.68 21.66 0 22 C0 14.74 0 7.48 0 0 Z " fill="#FCFCFD" transform="translate(527,122)"/>
<path d="M0 0 C0.33 0 0.66 0 1 0 C1 8.25 1 16.5 1 25 C0.67 25 0.34 25 0 25 C0 16.75 0 8.5 0 0 Z " fill="#FAFBFC" transform="translate(308,121)"/>
<path d="M0 0 C0.33 0 0.66 0 1 0 C1 7.59 1 15.18 1 23 C0.67 23 0.34 23 0 23 C0 15.41 0 7.82 0 0 Z " fill="#FAFAFB" transform="translate(557,126)"/>
<path d="M0 0 C0.33 0 0.66 0 1 0 C1 7.59 1 15.18 1 23 C0.67 23 0.34 23 0 23 C0 15.41 0 7.82 0 0 Z " fill="#FBFBFC" transform="translate(29,128)"/>
<path d="M0 0 C0.33 0 0.66 0 1 0 C1 7.59 1 15.18 1 23 C0.67 23 0.34 23 0 23 C0 15.41 0 7.82 0 0 Z " fill="#FEFEFE" transform="translate(367,81)"/>
<path d="M0 0 C6.93 0 13.86 0 21 0 C21 0.33 21 0.66 21 1 C14.07 1 7.14 1 0 1 C0 0.67 0 0.34 0 0 Z " fill="#FAFBFC" transform="translate(37,59)"/>
<path d="M0 0 C6.27 0 12.54 0 19 0 C19 0.33 19 0.66 19 1 C12.73 1 6.46 1 0 1 C0 0.67 0 0.34 0 0 Z " fill="#FBFBFD" transform="translate(386,87)"/>
<path d="M0 0 C5.94 0 11.88 0 18 0 C18 0.33 18 0.66 18 1 C12.06 1 6.12 1 0 1 C0 0.67 0 0.34 0 0 Z " fill="#FBFBFD" transform="translate(577,87)"/>
<path d="M0 0 C0 0.66 0 1.32 0 2 C-4.62 2 -9.24 2 -14 2 C-14 1.67 -14 1.34 -14 1 C-9.27616037 0.34843591 -4.78025483 -0.11950637 0 0 Z " fill="#FBFCFD" transform="translate(704,86)"/>
<path d="M0 0 C0.33 0 0.66 0 1 0 C1 5.94 1 11.88 1 18 C0.67 18 0.34 18 0 18 C0 12.06 0 6.12 0 0 Z " fill="#FBFBFC" transform="translate(65,66)"/>
<path d="M0 0 C0.33 0 0.66 0 1 0 C1 5.61 1 11.22 1 17 C0.67 17 0.34 17 0 17 C0 11.39 0 5.78 0 0 Z " fill="#FEFEFE" transform="translate(367,130)"/>
<path d="M0 0 C0.33 0 0.66 0 1 0 C1.33 4.62 1.66 9.24 2 14 C0 12 0 12 -0.1953125 9.1796875 C-0.17210937 8.08914062 -0.14890625 6.99859375 -0.125 5.875 C-0.10695313 4.77929688 -0.08890625 3.68359375 -0.0703125 2.5546875 C-0.04710937 1.71164063 -0.02390625 0.86859375 0 0 Z " fill="#FCFCFD" transform="translate(771,111)"/>
<path d="M0 0 C0.99 0.33 1.98 0.66 3 1 C1.37660195 2.70884005 -0.29319053 4.37446717 -2 6 C-2.66 6 -3.32 6 -4 6 C-2.84826645 3.53199953 -1.95216435 1.95216435 0 0 Z " fill="#404C8F" transform="translate(761,94)"/>
<path d="M0 0 C5.28 0 10.56 0 16 0 C16 0.33 16 0.66 16 1 C10.72 1 5.44 1 0 1 C0 0.67 0 0.34 0 0 Z " fill="#FDFDFE" transform="translate(539,68)"/>
<path d="M0 0 C4.95 0 9.9 0 15 0 C15 0.33 15 0.66 15 1 C10.05 1 5.1 1 0 1 C0 0.67 0 0.34 0 0 Z " fill="#FBFBFD" transform="translate(7,126)"/>
<path d="M0 0 C0.33 0 0.66 0 1 0 C1 4.95 1 9.9 1 15 C0.67 15 0.34 15 0 15 C0 10.05 0 5.1 0 0 Z " fill="#FCFCFD" transform="translate(527,93)"/>
<path d="M0 0 C4.95 0 9.9 0 15 0 C15 0.33 15 0.66 15 1 C10.05 1 5.1 1 0 1 C0 0.67 0 0.34 0 0 Z " fill="#FBFBFD" transform="translate(320,87)"/>
<path d="M0 0 C0.33 0 0.66 0 1 0 C1 4.29 1 8.58 1 13 C0.67 13 0.34 13 0 13 C0 8.71 0 4.42 0 0 Z " fill="#FBFBFC" transform="translate(614,158)"/>
<path d="M0 0 C0.33 0 0.66 0 1 0 C1 4.29 1 8.58 1 13 C0.67 13 0.34 13 0 13 C0 8.71 0 4.42 0 0 Z " fill="#FBFBFC" transform="translate(447,103)"/>
<path d="M0 0 C0.33 0 0.66 0 1 0 C1 4.29 1 8.58 1 13 C0.67 13 0.34 13 0 13 C0 8.71 0 4.42 0 0 Z " fill="#FAFBFC" transform="translate(96,98)"/>
<path d="M0 0 C4.29 0 8.58 0 13 0 C13 0.33 13 0.66 13 1 C8.71 1 4.42 1 0 1 C0 0.67 0 0.34 0 0 Z " fill="#FBFCFD" transform="translate(227,87)"/>
<path d="M0 0 C3.3 0 6.6 0 10 0 C10 0.33 10 0.66 10 1 C6.7 1.33 3.4 1.66 0 2 C0 1.34 0 0.68 0 0 Z " fill="#FBFCFC" transform="translate(772,147)"/>
<path d="M0 0 C3.96 0 7.92 0 12 0 C12 0.33 12 0.66 12 1 C8.04 1 4.08 1 0 1 C0 0.67 0 0.34 0 0 Z " fill="#FBFCFD" transform="translate(664,87)"/>
<path d="M0 0 C3.96 0 7.92 0 12 0 C12 0.33 12 0.66 12 1 C8.04 1 4.08 1 0 1 C0 0.67 0 0.34 0 0 Z " fill="#FBFCFD" transform="translate(635,87)"/>
<path d="M0 0 C3.96 0 7.92 0 12 0 C12 0.33 12 0.66 12 1 C8.04 1 4.08 1 0 1 C0 0.67 0 0.34 0 0 Z " fill="#FBFCFD" transform="translate(514,87)"/>
<path d="M0 0 C0.99 0.495 0.99 0.495 2 1 C2 3.97 2 6.94 2 10 C1.67 10 1.34 10 1 10 C0.67 6.7 0.34 3.4 0 0 Z " fill="#FCFCFC" transform="translate(307,103)"/>
<path d="M0 0 C3.63 0 7.26 0 11 0 C11 0.33 11 0.66 11 1 C7.37 1 3.74 1 0 1 C0 0.67 0 0.34 0 0 Z " fill="#FBFBFD" transform="translate(256,87)"/>
<path d="M0 0 C3.63 0 7.26 0 11 0 C11 0.33 11 0.66 11 1 C7.37 1 3.74 1 0 1 C0 0.67 0 0.34 0 0 Z " fill="#FDFDFE" transform="translate(168,68)"/>
<path d="M0 0 C0.33 0 0.66 0 1 0 C1 3.3 1 6.6 1 10 C0.67 10 0.34 10 0 10 C0 6.7 0 3.4 0 0 Z " fill="#FAFBFC" transform="translate(317,137)"/>
<path d="M0 0 C3.3 0 6.6 0 10 0 C10 0.33 10 0.66 10 1 C6.7 1 3.4 1 0 1 C0 0.67 0 0.34 0 0 Z " fill="#FCFCFD" transform="translate(461,132)"/>
<path d="M0 0 C3.3 0 6.6 0 10 0 C10 0.33 10 0.66 10 1 C6.7 1 3.4 1 0 1 C0 0.67 0 0.34 0 0 Z " fill="#FBFCFD" transform="translate(801,87)"/>
<path d="M0 0 C0.33 0 0.66 0 1 0 C1 2.97 1 5.94 1 9 C0.67 9 0.34 9 0 9 C0 6.03 0 3.06 0 0 Z " fill="#FAFBFC" transform="translate(658,140)"/>
<path d="M0 0 C0.33 0 0.66 0 1 0 C1 2.97 1 5.94 1 9 C0.67 9 0.34 9 0 9 C0 6.03 0 3.06 0 0 Z " fill="#FCFCFD" transform="translate(288,140)"/>
<path d="M0 0 C0.33 0 0.66 0 1 0 C1 2.97 1 5.94 1 9 C0.67 9 0.34 9 0 9 C0 6.03 0 3.06 0 0 Z " fill="#FAFBFC" transform="translate(658,89)"/>
<path d="M0 0 C2.97 0 5.94 0 9 0 C9 0.33 9 0.66 9 1 C6.03 1 3.06 1 0 1 C0 0.67 0 0.34 0 0 Z " fill="#FDFDFE" transform="translate(352,68)"/>
<path d="M0 0 C1.98 0.99 1.98 0.99 4 2 C4 2.66 4 3.32 4 4 C2.68 3.34 1.36 2.68 0 2 C0 1.34 0 0.68 0 0 Z " fill="#FEFEFE" transform="translate(188,142)"/>
<path d="M0 0 C0.33 0 0.66 0 1 0 C1 2.64 1 5.28 1 8 C0.67 8 0.34 8 0 8 C0 5.36 0 2.72 0 0 Z " fill="#FBFCFD" transform="translate(537,139)"/>
<path d="M0 0 C0.33 0 0.66 0 1 0 C1 2.64 1 5.28 1 8 C0.67 8 0.34 8 0 8 C0 5.36 0 2.72 0 0 Z " fill="#FAFBFC" transform="translate(317,104)"/>
<path d="M0 0 C2.64 0 5.28 0 8 0 C8 0.33 8 0.66 8 1 C5.36 1 2.72 1 0 1 C0 0.67 0 0.34 0 0 Z " fill="#FDFDFE" transform="translate(125,68)"/>
<path d="M0 0 C2.31 0 4.62 0 7 0 C7 0.33 7 0.66 7 1 C4.69 1 2.38 1 0 1 C0 0.67 0 0.34 0 0 Z " fill="#FBFBFD" transform="translate(611,87)"/>
<path d="M0 0 C2.31 0 4.62 0 7 0 C7 0.33 7 0.66 7 1 C4.69 1 2.38 1 0 1 C0 0.67 0 0.34 0 0 Z " fill="#FAFBFC" transform="translate(462,86)"/>
<path d="M0 0 C0.33 0 0.66 0 1 0 C1 2.31 1 4.62 1 7 C0.67 7 0.34 7 0 7 C0 4.69 0 2.38 0 0 Z " fill="#FEFEFE" transform="translate(367,72)"/>
<path d="M0 0 C2.31 0 4.62 0 7 0 C7 0.33 7 0.66 7 1 C4.69 1 2.38 1 0 1 C0 0.67 0 0.34 0 0 Z " fill="#FDFDFE" transform="translate(197,68)"/>
<path d="M0 0 C0.33 0 0.66 0 1 0 C1 1.98 1 3.96 1 6 C0.67 6 0.34 6 0 6 C0 4.02 0 2.04 0 0 Z " fill="#FCFCFD" transform="translate(120,140)"/>
<path d="M0 0 C1.98 0 3.96 0 6 0 C6 0.33 6 0.66 6 1 C4.02 1 2.04 1 0 1 C0 0.67 0 0.34 0 0 Z " fill="#FAFAFC" transform="translate(24,126)"/>
<path d="M0 0 C0.33 0 0.66 0 1 0 C1 1.98 1 3.96 1 6 C0.67 6 0.34 6 0 6 C0 4.02 0 2.04 0 0 Z " fill="#FAFBFC" transform="translate(317,93)"/>
<path d="M0 0 C0.33 1.32 0.66 2.64 1 4 C0.01 3.67 -0.98 3.34 -2 3 C-1.34 3 -0.68 3 0 3 C0 2.01 0 1.02 0 0 Z " fill="#FAFBFC" transform="translate(29,87)"/>
<path d="M0 0 C0.33 0 0.66 0 1 0 C1 1.98 1 3.96 1 6 C0.67 6 0.34 6 0 6 C0 4.02 0 2.04 0 0 Z " fill="#FBFBFC" transform="translate(657,71)"/>
<path d="M0 0 C1.65 0 3.3 0 5 0 C5 0.33 5 0.66 5 1 C3.35 1 1.7 1 0 1 C0 0.67 0 0.34 0 0 Z " fill="#FAFBFC" transform="translate(622,173)"/>
<path d="M0 0 C1.65 0 3.3 0 5 0 C5 0.33 5 0.66 5 1 C3.35 1 1.7 1 0 1 C0 0.67 0 0.34 0 0 Z " fill="#FBFBFC" transform="translate(779,129)"/>
<path d="M0 0 C0.33 0 0.66 0 1 0 C1 1.65 1 3.3 1 5 C0.67 5 0.34 5 0 5 C0 3.35 0 1.7 0 0 Z " fill="#FEFEFE" transform="translate(620,96)"/>
<path d="M0 0 C0.33 0 0.66 0 1 0 C1 1.65 1 3.3 1 5 C0.67 5 0.34 5 0 5 C0 3.35 0 1.7 0 0 Z " fill="#FBFCFD" transform="translate(679,72)"/>
<path d="M0 0 C4 1 4 1 4 1 Z " fill="#FCFCFD" transform="translate(780,155)"/>
<path d="M0 0 C0 3 0 3 0 3 Z " fill="#FCFCFD" transform="translate(576,115)"/>
<path d="M0 0 C0 3 0 3 0 3 Z " fill="#FCFCFD" transform="translate(273,106)"/>
<path d="M0 0 C0 3 0 3 0 3 Z " fill="#FCFCFD" transform="translate(162,103)"/>
<path d="M0 0 C0 3 0 3 0 3 Z " fill="#FCFCFD" transform="translate(590,98)"/>
<path d="M0 0 C0 3 0 3 0 3 Z " fill="#FDFDFD" transform="translate(166,98)"/>
<path d="M0 0 C0 3 0 3 0 3 Z " fill="#FCFCFD" transform="translate(402,95)"/>
<path d="M0 0 C4 1 4 1 4 1 Z " fill="#FBFBFC" transform="translate(772,86)"/>
<path d="M0 0 C0 3 0 3 0 3 Z " fill="#FCFCFD" transform="translate(184,76)"/>
<path d="M0 0 C1 4 1 4 1 4 Z " fill="#FBFCFD" transform="translate(338,73)"/>
<path d="M0 0 C4 1 4 1 4 1 Z " fill="#FDFDFE" transform="translate(362,68)"/>
<path d="" fill="#FCFCFD" transform="translate(0,0)"/>
<path d="M0 0 C3 1 3 1 3 1 Z " fill="#FBFBFC" transform="translate(472,151)"/>
<path d="" fill="#FBFBFC" transform="translate(0,0)"/>
<path d="M0 0 C0.66 0 1.32 0 2 0 C1.67 0.66 1.34 1.32 1 2 C0.67 1.34 0.34 0.68 0 0 Z " fill="#FEFEFE" transform="translate(184,138)"/>
<path d="M0 0 C0.66 0.66 1.32 1.32 2 2 C1.34 2 0.68 2 0 2 C0 1.34 0 0.68 0 0 Z " fill="#FCFCFD" transform="translate(367,127)"/>
<path d="M0 0 C0.33 0.66 0.66 1.32 1 2 C0.34 1.67 -0.32 1.34 -1 1 C-0.67 0.67 -0.34 0.34 0 0 Z " fill="#FBFBFC" transform="translate(774,106)"/>
<path d="" fill="#FCFCFD" transform="translate(0,0)"/>
<path d="" fill="#FCFCFD" transform="translate(0,0)"/>
<path d="" fill="#FBFBFC" transform="translate(0,0)"/>
<path d="M0 0 C3 1 3 1 3 1 Z " fill="#FBFCFD" transform="translate(797,87)"/>
<path d="M0 0 C3 1 3 1 3 1 Z " fill="#FBFBFC" transform="translate(716,86)"/>
<path d="M0 0 C3 1 3 1 3 1 Z " fill="#FDFDFE" transform="translate(137,68)"/>
<path d="" fill="#FBFBFC" transform="translate(0,0)"/>
<path d="" fill="#FBFBFD" transform="translate(0,0)"/>
<path d="M0 0 C2 1 2 1 2 1 Z " fill="#FBFBFC" transform="translate(787,154)"/>
<path d="M0 0 C2 1 2 1 2 1 Z " fill="#FBFBFC" transform="translate(457,151)"/>
<path d="M0 0 C2 1 2 1 2 1 Z " fill="#FBFBFC" transform="translate(477,150)"/>
<path d="M0 0 C2 1 2 1 2 1 Z " fill="#FBFCFD" transform="translate(452,150)"/>
<path d="M0 0 C2 1 2 1 2 1 Z " fill="#FEFEFE" transform="translate(754,148)"/>
<path d="" fill="#FAFBFC" transform="translate(0,0)"/>
<path d="" fill="#FCFCFD" transform="translate(0,0)"/>
<path d="" fill="#FDFDFE" transform="translate(0,0)"/>
<path d="" fill="#FCFDFD" transform="translate(0,0)"/>
<path d="" fill="#FCFDFD" transform="translate(0,0)"/>
<path d="" fill="#FCFCFD" transform="translate(0,0)"/>
<path d="" fill="#FBFCFD" transform="translate(0,0)"/>
<path d="" fill="#FCFCFD" transform="translate(0,0)"/>
<path d="" fill="#FCFCFD" transform="translate(0,0)"/>
<path d="" fill="#FCFDFD" transform="translate(0,0)"/>
<path d="" fill="#FEFEFE" transform="translate(0,0)"/>
<path d="" fill="#FBFCFD" transform="translate(0,0)"/>
<path d="M0 0 C2 1 2 1 2 1 Z " fill="#FEFEFE" transform="translate(385,118)"/>
<path d="" fill="#FDFDFE" transform="translate(0,0)"/>
<path d="" fill="#FBFBFC" transform="translate(0,0)"/>
<path d="" fill="#FCFDFD" transform="translate(0,0)"/>
<path d="" fill="#FBFBFC" transform="translate(0,0)"/>
<path d="" fill="#FBFBFD" transform="translate(0,0)"/>
<path d="" fill="#FDFDFD" transform="translate(0,0)"/>
<path d="" fill="#FEFEFE" transform="translate(0,0)"/>
<path d="" fill="#FBFBFC" transform="translate(0,0)"/>
<path d="" fill="#FCFDFD" transform="translate(0,0)"/>
<path d="M0 0 C2 1 2 1 2 1 Z " fill="#FBFBFD" transform="translate(711,105)"/>
<path d="M0 0 C2 1 2 1 2 1 Z " fill="#FBFBFC" transform="translate(714,104)"/>
<path d="" fill="#FCFCFD" transform="translate(0,0)"/>
<path d="" fill="#FCFCFC" transform="translate(0,0)"/>
<path d="" fill="#FBFCFD" transform="translate(0,0)"/>
<path d="" fill="#FCFCFD" transform="translate(0,0)"/>
<path d="M0 0 C2 1 2 1 2 1 Z " fill="#FBFBFC" transform="translate(88,90)"/>
<path d="M0 0 C2 1 2 1 2 1 Z " fill="#FBFBFC" transform="translate(5,90)"/>
<path d="" fill="#FDFDFD" transform="translate(0,0)"/>
<path d="M0 0 C2 1 2 1 2 1 Z " fill="#FCFCFD" transform="translate(766,88)"/>
<path d="M0 0 C2 1 2 1 2 1 Z " fill="#FBFCFD" transform="translate(769,87)"/>
<path d="M0 0 C2 1 2 1 2 1 Z " fill="#FBFBFD" transform="translate(631,87)"/>
<path d="M0 0 C2 1 2 1 2 1 Z " fill="#FBFBFD" transform="translate(458,87)"/>
<path d="M0 0 C2 1 2 1 2 1 Z " fill="#FBFCFD" transform="translate(224,87)"/>
<path d="M0 0 C2 1 2 1 2 1 Z " fill="#FBFBFC" transform="translate(287,86)"/>
<path d="M0 0 C2 1 2 1 2 1 Z " fill="#FBFBFC" transform="translate(280,86)"/>
<path d="M0 0 C2 1 2 1 2 1 Z " fill="#FCFCFD" transform="translate(517,85)"/>
<path d="M0 0 C2 1 2 1 2 1 Z " fill="#FCFCFD" transform="translate(235,84)"/>
<path d="" fill="#FCFDFD" transform="translate(0,0)"/>
<path d="" fill="#FBFCFD" transform="translate(0,0)"/>
<path d="" fill="#FCFCFD" transform="translate(0,0)"/>
<path d="" fill="#FBFCFC" transform="translate(0,0)"/>
<path d="" fill="#FBFCFC" transform="translate(0,0)"/>
<path d="" fill="#FBFBFC" transform="translate(0,0)"/>
<path d="" fill="#FCFCFD" transform="translate(0,0)"/>
<path d="" fill="#FBFBFD" transform="translate(0,0)"/>
<path d="" fill="#FBFBFD" transform="translate(0,0)"/>
<path d="M0 0 C2 1 2 1 2 1 Z " fill="#FBFBFC" transform="translate(459,67)"/>
<path d="M0 0 C2 1 2 1 2 1 Z " fill="#FBFBFC" transform="translate(636,63)"/>
<path d="M0 0 C2 1 2 1 2 1 Z " fill="#FBFBFC" transform="translate(607,63)"/>
<path d="M0 0 C2 1 2 1 2 1 Z " fill="#FCFCFC" transform="translate(515,63)"/>
<path d="" fill="#FBFBFC" transform="translate(0,0)"/>
<path d="" fill="#FBFBFC" transform="translate(0,0)"/>
<path d="" fill="#FBFCFD" transform="translate(0,0)"/>
<path d="" fill="#FBFCFD" transform="translate(0,0)"/>
<path d="" fill="#FBFCFD" transform="translate(0,0)"/>
<path d="" fill="#FCFCFD" transform="translate(0,0)"/>
<path d="" fill="#FBFCFD" transform="translate(0,0)"/>
<path d="" fill="#FBFBFD" transform="translate(0,0)"/>
<path d="" fill="#FBFCFD" transform="translate(0,0)"/>
<path d="" fill="#FBFBFD" transform="translate(0,0)"/>
<path d="" fill="#FBFCFD" transform="translate(0,0)"/>
<path d="" fill="#FBFBFC" transform="translate(0,0)"/>
<path d="" fill="#FBFCFD" transform="translate(0,0)"/>
<path d="" fill="#FBFBFC" transform="translate(0,0)"/>
<path d="" fill="#FBFBFC" transform="translate(0,0)"/>
<path d="" fill="#FCFCFD" transform="translate(0,0)"/>
<path d="" fill="#FCFDFD" transform="translate(0,0)"/>
<path d="" fill="#FEFEFE" transform="translate(0,0)"/>
<path d="" fill="#FCFCFD" transform="translate(0,0)"/>
<path d="" fill="#FBFCFD" transform="translate(0,0)"/>
<path d="" fill="#FBFBFD" transform="translate(0,0)"/>
<path d="" fill="#FBFBFC" transform="translate(0,0)"/>
<path d="" fill="#FCFCFD" transform="translate(0,0)"/>
<path d="" fill="#FBFBFC" transform="translate(0,0)"/>
<path d="" fill="#FBFCFD" transform="translate(0,0)"/>
<path d="" fill="#FCFCFD" transform="translate(0,0)"/>
<path d="" fill="#FBFBFC" transform="translate(0,0)"/>
<path d="" fill="#FAFBFC" transform="translate(0,0)"/>
<path d="" fill="#FCFCFD" transform="translate(0,0)"/>
<path d="" fill="#FBFBFC" transform="translate(0,0)"/>
<path d="" fill="#FDFDFD" transform="translate(0,0)"/>
<path d="" fill="#FCFCFD" transform="translate(0,0)"/>
<path d="" fill="#FEFEFE" transform="translate(0,0)"/>
<path d="" fill="#FBFBFD" transform="translate(0,0)"/>
<path d="" fill="#FAFBFC" transform="translate(0,0)"/>
<path d="" fill="#FBFBFD" transform="translate(0,0)"/>
<path d="" fill="#FCFCFD" transform="translate(0,0)"/>
<path d="" fill="#FCFCFD" transform="translate(0,0)"/>
<path d="" fill="#FCFCFD" transform="translate(0,0)"/>
<path d="" fill="#FBFBFC" transform="translate(0,0)"/>
<path d="" fill="#FCFCFD" transform="translate(0,0)"/>
<path d="" fill="#FCFCFD" transform="translate(0,0)"/>
<path d="" fill="#FCFCFD" transform="translate(0,0)"/>
<path d="" fill="#FDFDFE" transform="translate(0,0)"/>
<path d="" fill="#FBFBFD" transform="translate(0,0)"/>
<path d="" fill="#FBFCFD" transform="translate(0,0)"/>
<path d="" fill="#FCFCFD" transform="translate(0,0)"/>
<path d="" fill="#FCFCFD" transform="translate(0,0)"/>
<path d="" fill="#FCFCFD" transform="translate(0,0)"/>
<path d="" fill="#FCFCFD" transform="translate(0,0)"/>
<path d="" fill="#FBFBFD" transform="translate(0,0)"/>
<path d="" fill="#FBFBFC" transform="translate(0,0)"/>
<path d="" fill="#FBFBFD" transform="translate(0,0)"/>
<path d="" fill="#FCFCFD" transform="translate(0,0)"/>
<path d="" fill="#FBFBFC" transform="translate(0,0)"/>
<path d="" fill="#FEFEFE" transform="translate(0,0)"/>
<path d="" fill="#FBFBFC" transform="translate(0,0)"/>
<path d="" fill="#FBFBFC" transform="translate(0,0)"/>
<path d="" fill="#FCFDFD" transform="translate(0,0)"/>
<path d="" fill="#FBFCFD" transform="translate(0,0)"/>
<path d="" fill="#FBFBFC" transform="translate(0,0)"/>
<path d="" fill="#FBFBFD" transform="translate(0,0)"/>
<path d="" fill="#FBFBFC" transform="translate(0,0)"/>
<path d="" fill="#F9F9FB" transform="translate(0,0)"/>
<path d="" fill="#FCFCFD" transform="translate(0,0)"/>
<path d="" fill="#FBFBFD" transform="translate(0,0)"/>
<path d="" fill="#FCFCFD" transform="translate(0,0)"/>
<path d="" fill="#FDFDFE" transform="translate(0,0)"/>
<path d="" fill="#FBFBFC" transform="translate(0,0)"/>
<path d="" fill="#FBFBFC" transform="translate(0,0)"/>
<path d="" fill="#FEFEFE" transform="translate(0,0)"/>
<path d="" fill="#FDFDFE" transform="translate(0,0)"/>
<path d="" fill="#FBFBFC" transform="translate(0,0)"/>
<path d="" fill="#FBFCFD" transform="translate(0,0)"/>
<path d="" fill="#FEFEFE" transform="translate(0,0)"/>
<path d="" fill="#FCFCFD" transform="translate(0,0)"/>
<path d="" fill="#FBFBFD" transform="translate(0,0)"/>
<path d="" fill="#FBFBFC" transform="translate(0,0)"/>
<path d="" fill="#FCFCFD" transform="translate(0,0)"/>
<path d="" fill="#FBFBFC" transform="translate(0,0)"/>
<path d="" fill="#FBFBFC" transform="translate(0,0)"/>
<path d="" fill="#FBFBFC" transform="translate(0,0)"/>
<path d="" fill="#FBFBFD" transform="translate(0,0)"/>
<path d="" fill="#FBFBFC" transform="translate(0,0)"/>
<path d="" fill="#FBFBFC" transform="translate(0,0)"/>
<path d="" fill="#FBFBFD" transform="translate(0,0)"/>
<path d="" fill="#FCFCFD" transform="translate(0,0)"/>
<path d="" fill="#FBFBFD" transform="translate(0,0)"/>
<path d="" fill="#FBFBFC" transform="translate(0,0)"/>
<path d="" fill="#FBFBFC" transform="translate(0,0)"/>
<path d="" fill="#FBFCFD" transform="translate(0,0)"/>
<path d="" fill="#FBFCFD" transform="translate(0,0)"/>
<path d="" fill="#FBFBFC" transform="translate(0,0)"/>
<path d="" fill="#FCFCFD" transform="translate(0,0)"/>
<path d="" fill="#FBFBFD" transform="translate(0,0)"/>
<path d="" fill="#FCFCFD" transform="translate(0,0)"/>
<path d="" fill="#FCFCFD" transform="translate(0,0)"/>
<path d="" fill="#FCFCFD" transform="translate(0,0)"/>
<path d="" fill="#FBFBFC" transform="translate(0,0)"/>
<path d="" fill="#FDFDFD" transform="translate(0,0)"/>
<path d="" fill="#FDFDFE" transform="translate(0,0)"/>
<path d="" fill="#FBFBFC" transform="translate(0,0)"/>
<path d="" fill="#FCFCFD" transform="translate(0,0)"/>
<path d="" fill="#FBFBFC" transform="translate(0,0)"/>
<path d="" fill="#FBFBFC" transform="translate(0,0)"/>
<path d="" fill="#FBFBFC" transform="translate(0,0)"/>
<path d="" fill="#FBFBFC" transform="translate(0,0)"/>
<path d="" fill="#FAFAFC" transform="translate(0,0)"/>
<path d="" fill="#FBFBFC" transform="translate(0,0)"/>
<path d="" fill="#FBFCFD" transform="translate(0,0)"/>
<path d="" fill="#FBFBFC" transform="translate(0,0)"/>
<path d="" fill="#FAFBFC" transform="translate(0,0)"/>
<path d="" fill="#FBFBFC" transform="translate(0,0)"/>
<path d="" fill="#FBFBFC" transform="translate(0,0)"/>
<path d="" fill="#FCFDFD" transform="translate(0,0)"/>
<path d="" fill="#FBFBFC" transform="translate(0,0)"/>
<path d="" fill="#FBFBFD" transform="translate(0,0)"/>
<path d="" fill="#FBFBFC" transform="translate(0,0)"/>
<path d="" fill="#FAFBFC" transform="translate(0,0)"/>
<path d="" fill="#FCFCFD" transform="translate(0,0)"/>
<path d="" fill="#FBFBFD" transform="translate(0,0)"/>
<path d="" fill="#FAFBFC" transform="translate(0,0)"/>
<path d="" fill="#FBFBFC" transform="translate(0,0)"/>
<path d="" fill="#FAFBFC" transform="translate(0,0)"/>
<path d="" fill="#FBFBFD" transform="translate(0,0)"/>
<path d="" fill="#FBFBFC" transform="translate(0,0)"/>
<path d="" fill="#FAFAFC" transform="translate(0,0)"/>
<path d="" fill="#FCFCFD" transform="translate(0,0)"/>
<path d="" fill="#FBFBFC" transform="translate(0,0)"/>
<path d="" fill="#FBFBFD" transform="translate(0,0)"/>
<path d="" fill="#FCFCFD" transform="translate(0,0)"/>
<path d="" fill="#FBFBFD" transform="translate(0,0)"/>
<path d="" fill="#FBFBFC" transform="translate(0,0)"/>
<path d="" fill="#FBFCFD" transform="translate(0,0)"/>
<path d="" fill="#FCFCFD" transform="translate(0,0)"/>
<path d="" fill="#FBFCFD" transform="translate(0,0)"/>
<path d="" fill="#FBFBFC" transform="translate(0,0)"/>
<path d="" fill="#FCFCFD" transform="translate(0,0)"/>
<path d="" fill="#FDFDFD" transform="translate(0,0)"/>
<path d="" fill="#FBFBFC" transform="translate(0,0)"/>
<path d="" fill="#FDFDFD" transform="translate(0,0)"/>
<path d="" fill="#FCFCFD" transform="translate(0,0)"/>
<path d="" fill="#FCFCFD" transform="translate(0,0)"/>
<path d="" fill="#FCFCFD" transform="translate(0,0)"/>
<path d="" fill="#FCFCFD" transform="translate(0,0)"/>
<path d="" fill="#FBFBFC" transform="translate(0,0)"/>
<path d="" fill="#FBFBFC" transform="translate(0,0)"/>
<path d="" fill="#FBFBFC" transform="translate(0,0)"/>
<path d="" fill="#FCFCFD" transform="translate(0,0)"/>
<path d="" fill="#FBFBFC" transform="translate(0,0)"/>
<path d="" fill="#FDFDFE" transform="translate(0,0)"/>
<path d="" fill="#FBFBFC" transform="translate(0,0)"/>
<path d="" fill="#FBFBFC" transform="translate(0,0)"/>
<path d="" fill="#FBFBFC" transform="translate(0,0)"/>
<path d="" fill="#FCFCFD" transform="translate(0,0)"/>
<path d="" fill="#F8F9FB" transform="translate(0,0)"/>
<path d="" fill="#FBFBFC" transform="translate(0,0)"/>
<path d="" fill="#FBFBFC" transform="translate(0,0)"/>
<path d="" fill="#FCFCFD" transform="translate(0,0)"/>
<path d="" fill="#FCFCFD" transform="translate(0,0)"/>
<path d="" fill="#FBFBFC" transform="translate(0,0)"/>
<path d="" fill="#FBFBFC" transform="translate(0,0)"/>
<path d="" fill="#FBFBFC" transform="translate(0,0)"/>
<path d="" fill="#FBFBFC" transform="translate(0,0)"/>
<path d="" fill="#FCFCFD" transform="translate(0,0)"/>
<path d="" fill="#FBFBFD" transform="translate(0,0)"/>
<path d="" fill="#FBFBFC" transform="translate(0,0)"/>
<path d="" fill="#FDFDFE" transform="translate(0,0)"/>
<path d="" fill="#FBFBFD" transform="translate(0,0)"/>
<path d="" fill="#FCFDFD" transform="translate(0,0)"/>
<path d="" fill="#FBFBFC" transform="translate(0,0)"/>
<path d="" fill="#FCFCFD" transform="translate(0,0)"/>
<path d="" fill="#FEFEFE" transform="translate(0,0)"/>
<path d="" fill="#FBFCFD" transform="translate(0,0)"/>
<path d="" fill="#FBFBFC" transform="translate(0,0)"/>
<path d="" fill="#FBFBFC" transform="translate(0,0)"/>
<path d="" fill="#FBFBFC" transform="translate(0,0)"/>
<path d="" fill="#FCFCFD" transform="translate(0,0)"/>
<path d="" fill="#FBFBFD" transform="translate(0,0)"/>
<path d="" fill="#FCFCFD" transform="translate(0,0)"/>
<path d="" fill="#FBFBFC" transform="translate(0,0)"/>
<path d="" fill="#FCFCFD" transform="translate(0,0)"/>
<path d="" fill="#FBFBFC" transform="translate(0,0)"/>
<path d="" fill="#FBFBFC" transform="translate(0,0)"/>
<path d="" fill="#FEFEFE" transform="translate(0,0)"/>
<path d="" fill="#FBFBFC" transform="translate(0,0)"/>
<path d="" fill="#FBFBFD" transform="translate(0,0)"/>
<path d="" fill="#FBFBFC" transform="translate(0,0)"/>
<path d="" fill="#FBFBFC" transform="translate(0,0)"/>
<path d="" fill="#F9FAFB" transform="translate(0,0)"/>
<path d="" fill="#FCFCFD" transform="translate(0,0)"/>
<path d="" fill="#FBFBFC" transform="translate(0,0)"/>
<path d="" fill="#FAFBFC" transform="translate(0,0)"/>
<path d="" fill="#FBFCFD" transform="translate(0,0)"/>
<path d="" fill="#FCFCFD" transform="translate(0,0)"/>
<path d="" fill="#FBFBFC" transform="translate(0,0)"/>
<path d="" fill="#FBFBFC" transform="translate(0,0)"/>
<path d="" fill="#FBFBFC" transform="translate(0,0)"/>
<path d="" fill="#FCFCFD" transform="translate(0,0)"/>
<path d="" fill="#FBFBFC" transform="translate(0,0)"/>
<path d="" fill="#FBFBFC" transform="translate(0,0)"/>
<path d="" fill="#FBFBFC" transform="translate(0,0)"/>
<path d="" fill="#FBFBFC" transform="translate(0,0)"/>
<path d="" fill="#FBFCFD" transform="translate(0,0)"/>
<path d="" fill="#FBFBFC" transform="translate(0,0)"/>
<path d="" fill="#FCFDFD" transform="translate(0,0)"/>
<path d="" fill="#FBFBFC" transform="translate(0,0)"/>
<path d="" fill="#FCFCFD" transform="translate(0,0)"/>
<path d="" fill="#FCFCFD" transform="translate(0,0)"/>
<path d="" fill="#FBFBFC" transform="translate(0,0)"/>
<path d="" fill="#FCFCFD" transform="translate(0,0)"/>
<path d="" fill="#FCFCFD" transform="translate(0,0)"/>
<path d="" fill="#FAFBFC" transform="translate(0,0)"/>
<path d="" fill="#FCFCFD" transform="translate(0,0)"/>
<path d="" fill="#FDFDFD" transform="translate(0,0)"/>
<path d="" fill="#FBFBFC" transform="translate(0,0)"/>
<path d="" fill="#FBFCFD" transform="translate(0,0)"/>
<path d="" fill="#FBFBFC" transform="translate(0,0)"/>
<path d="" fill="#FBFBFC" transform="translate(0,0)"/>
<path d="" fill="#FBFBFD" transform="translate(0,0)"/>
<path d="" fill="#FCFCFD" transform="translate(0,0)"/>
<path d="" fill="#FCFCFD" transform="translate(0,0)"/>
<path d="" fill="#FBFBFD" transform="translate(0,0)"/>
<path d="" fill="#FBFBFC" transform="translate(0,0)"/>
<path d="" fill="#FCFCFD" transform="translate(0,0)"/>
<path d="" fill="#FDFDFD" transform="translate(0,0)"/>
<path d="" fill="#FBFBFC" transform="translate(0,0)"/>
<path d="" fill="#FCFCFD" transform="translate(0,0)"/>
<path d="" fill="#FCFCFD" transform="translate(0,0)"/>
<path d="" fill="#FCFCFD" transform="translate(0,0)"/>
<path d="" fill="#FBFBFC" transform="translate(0,0)"/>
<path d="" fill="#FBFBFC" transform="translate(0,0)"/>
<path d="" fill="#FBFBFC" transform="translate(0,0)"/>
<path d="" fill="#FBFBFD" transform="translate(0,0)"/>
<path d="" fill="#FBFBFD" transform="translate(0,0)"/>
<path d="" fill="#FCFCFD" transform="translate(0,0)"/>
<path d="" fill="#FBFBFC" transform="translate(0,0)"/>
<path d="" fill="#FCFCFD" transform="translate(0,0)"/>
<path d="" fill="#FCFCFD" transform="translate(0,0)"/>
<path d="" fill="#FBFBFC" transform="translate(0,0)"/>
<path d="" fill="#FDFDFD" transform="translate(0,0)"/>
<path d="" fill="#FAFBFC" transform="translate(0,0)"/>
<path d="" fill="#FBFBFC" transform="translate(0,0)"/>
<path d="" fill="#FBFBFC" transform="translate(0,0)"/>
<path d="" fill="#FDFDFD" transform="translate(0,0)"/>
<path d="" fill="#FBFBFC" transform="translate(0,0)"/>
<path d="" fill="#F9F9FB" transform="translate(0,0)"/>
<path d="" fill="#FBFBFC" transform="translate(0,0)"/>
<path d="" fill="#FBFBFC" transform="translate(0,0)"/>
<path d="" fill="#FBFBFC" transform="translate(0,0)"/>
<path d="" fill="#FBFBFC" transform="translate(0,0)"/>
<path d="" fill="#FAFAFC" transform="translate(0,0)"/>
<path d="" fill="#FBFBFD" transform="translate(0,0)"/>
<path d="" fill="#FBFBFC" transform="translate(0,0)"/>
<path d="" fill="#FBFBFC" transform="translate(0,0)"/>
<path d="" fill="#FBFBFC" transform="translate(0,0)"/>
<path d="" fill="#FAFAFC" transform="translate(0,0)"/>
<path d="" fill="#FAFAFC" transform="translate(0,0)"/>
<path d="" fill="#FCFCFD" transform="translate(0,0)"/>
<path d="" fill="#FCFCFD" transform="translate(0,0)"/>
<path d="" fill="#F9F9FB" transform="translate(0,0)"/>
<path d="" fill="#FAFBFC" transform="translate(0,0)"/>
<path d="" fill="#FBFBFD" transform="translate(0,0)"/>
<path d="" fill="#FBFBFD" transform="translate(0,0)"/>
<path d="" fill="#FDFDFE" transform="translate(0,0)"/>
<path d="" fill="#FCFCFD" transform="translate(0,0)"/>
<path d="" fill="#FBFCFD" transform="translate(0,0)"/>
<path d="" fill="#FCFCFD" transform="translate(0,0)"/>
<path d="" fill="#FBFCFD" transform="translate(0,0)"/>
<path d="" fill="#FBFCFD" transform="translate(0,0)"/>
<path d="" fill="#FBFBFC" transform="translate(0,0)"/>
<path d="" fill="#FCFCFD" transform="translate(0,0)"/>
<path d="" fill="#FEFEFE" transform="translate(0,0)"/>
<path d="" fill="#FBFBFD" transform="translate(0,0)"/>
<path d="" fill="#FCFCFD" transform="translate(0,0)"/>
<path d="" fill="#FBFBFD" transform="translate(0,0)"/>
<path d="" fill="#FBFCFD" transform="translate(0,0)"/>
<path d="" fill="#FBFBFC" transform="translate(0,0)"/>
<path d="" fill="#FBFBFC" transform="translate(0,0)"/>
<path d="" fill="#FBFBFD" transform="translate(0,0)"/>
<path d="" fill="#FBFBFD" transform="translate(0,0)"/>
<path d="" fill="#FBFBFC" transform="translate(0,0)"/>
<path d="" fill="#FBFCFD" transform="translate(0,0)"/>
<path d="" fill="#FBFBFC" transform="translate(0,0)"/>
<path d="" fill="#FCFCFD" transform="translate(0,0)"/>
<path d="" fill="#FCFCFD" transform="translate(0,0)"/>
<path d="" fill="#FCFCFD" transform="translate(0,0)"/>
<path d="" fill="#FCFCFD" transform="translate(0,0)"/>
<path d="" fill="#FCFCFD" transform="translate(0,0)"/>
<path d="" fill="#FCFCFD" transform="translate(0,0)"/>
<path d="" fill="#FBFCFD" transform="translate(0,0)"/>
<path d="" fill="#FBFBFD" transform="translate(0,0)"/>
<path d="" fill="#FCFCFD" transform="translate(0,0)"/>
<path d="" fill="#FCFCFD" transform="translate(0,0)"/>
<path d="" fill="#FDFDFD" transform="translate(0,0)"/>
<path d="" fill="#FBFBFC" transform="translate(0,0)"/>
<path d="" fill="#FDFDFE" transform="translate(0,0)"/>
<path d="" fill="#FCFCFD" transform="translate(0,0)"/>
<path d="" fill="#FCFCFD" transform="translate(0,0)"/>
<path d="" fill="#FCFCFD" transform="translate(0,0)"/>
<path d="" fill="#FCFCFD" transform="translate(0,0)"/>
<path d="" fill="#FCFCFD" transform="translate(0,0)"/>
<path d="" fill="#FCFCFD" transform="translate(0,0)"/>
<path d="" fill="#FCFCFD" transform="translate(0,0)"/>
<path d="" fill="#FCFCFD" transform="translate(0,0)"/>
<path d="" fill="#FCFCFD" transform="translate(0,0)"/>
<path d="" fill="#FBFBFD" transform="translate(0,0)"/>
<path d="" fill="#FCFCFD" transform="translate(0,0)"/>
<path d="" fill="#FCFCFD" transform="translate(0,0)"/>
<path d="" fill="#FBFBFD" transform="translate(0,0)"/>
<path d="" fill="#FCFCFD" transform="translate(0,0)"/>
<path d="" fill="#FCFCFD" transform="translate(0,0)"/>
<path d="" fill="#FBFBFC" transform="translate(0,0)"/>
<path d="" fill="#FCFCFD" transform="translate(0,0)"/>
<path d="" fill="#FCFCFD" transform="translate(0,0)"/>
<path d="" fill="#FBFBFD" transform="translate(0,0)"/>
<path d="" fill="#FCFCFD" transform="translate(0,0)"/>
<path d="" fill="#FCFDFD" transform="translate(0,0)"/>
<path d="" fill="#FBFCFD" transform="translate(0,0)"/>
<path d="" fill="#FBFCFD" transform="translate(0,0)"/>
<path d="" fill="#FBFCFD" transform="translate(0,0)"/>
<path d="" fill="#FBFBFC" transform="translate(0,0)"/>
<path d="" fill="#FBFCFD" transform="translate(0,0)"/>
<path d="" fill="#FBFBFC" transform="translate(0,0)"/>
<path d="" fill="#FBFBFC" transform="translate(0,0)"/>
<path d="" fill="#FBFBFC" transform="translate(0,0)"/>
<path d="" fill="#FBFBFC" transform="translate(0,0)"/>
<path d="" fill="#FDFDFE" transform="translate(0,0)"/>
<path d="" fill="#FBFCFD" transform="translate(0,0)"/>
<path d="" fill="#FBFBFD" transform="translate(0,0)"/>
<path d="" fill="#FCFCFD" transform="translate(0,0)"/>
<path d="" fill="#FCFCFD" transform="translate(0,0)"/>
<path d="" fill="#FBFBFC" transform="translate(0,0)"/>
<path d="" fill="#FBFBFC" transform="translate(0,0)"/>
<path d="" fill="#FBFBFD" transform="translate(0,0)"/>
<path d="" fill="#FBFBFD" transform="translate(0,0)"/>
<path d="" fill="#FCFCFD" transform="translate(0,0)"/>
<path d="" fill="#FCFCFD" transform="translate(0,0)"/>
<path d="" fill="#FCFCFD" transform="translate(0,0)"/>
<path d="" fill="#FCFCFD" transform="translate(0,0)"/>
<path d="" fill="#FBFBFC" transform="translate(0,0)"/>
<path d="" fill="#FBFBFC" transform="translate(0,0)"/>
<path d="" fill="#FBFCFD" transform="translate(0,0)"/>
<path d="" fill="#FDFDFE" transform="translate(0,0)"/>
<path d="" fill="#FEFEFE" transform="translate(0,0)"/>
<path d="" fill="#FDFDFE" transform="translate(0,0)"/>
<path d="" fill="#FBFBFC" transform="translate(0,0)"/>
<path d="" fill="#FDFDFE" transform="translate(0,0)"/>
<path d="" fill="#FBFCFD" transform="translate(0,0)"/>
<path d="" fill="#FCFCFD" transform="translate(0,0)"/>
<path d="" fill="#FCFCFD" transform="translate(0,0)"/>
<path d="" fill="#FDFDFD" transform="translate(0,0)"/>
<path d="" fill="#FCFCFD" transform="translate(0,0)"/>
<path d="" fill="#FCFCFD" transform="translate(0,0)"/>
<path d="" fill="#FCFDFD" transform="translate(0,0)"/>
<path d="" fill="#FCFCFD" transform="translate(0,0)"/>
<path d="" fill="#FCFCFD" transform="translate(0,0)"/>
<path d="" fill="#FCFCFD" transform="translate(0,0)"/>
<path d="" fill="#FCFCFD" transform="translate(0,0)"/>
<path d="" fill="#FBFBFC" transform="translate(0,0)"/>
<path d="" fill="#FBFBFD" transform="translate(0,0)"/>
<path d="" fill="#FCFCFD" transform="translate(0,0)"/>
<path d="" fill="#FCFCFD" transform="translate(0,0)"/>
</svg>
